<?xml version="1.0" standalone="no"?>
<!DOCTYPE svg PUBLIC "-//W3C//DTD SVG 20010904//EN"
 "http://www.w3.org/TR/2001/REC-SVG-20010904/DTD/svg10.dtd">
<svg version="1.0" xmlns="http://www.w3.org/2000/svg"
 width="715.000000pt" height="715.000000pt" viewBox="0 0 715.000000 715.000000"
 preserveAspectRatio="xMidYMid meet">
<metadata>
Created by potrace 1.14, written by Peter Selinger 2001-2017
</metadata>
<g transform="translate(0.000000,715.000000) scale(0.100000,-0.100000)"
fill="#000000" stroke="none">
<path d="M2594 4814 c-154 -22 -322 -72 -437 -130 -83 -43 -101 -57 -200 -157
-60 -61 -87 -98 -117 -162 -94 -197 -113 -278 -114 -485 -1 -91 1 -194 4 -230
l5 -65 -46 3 c-29 2 -50 -1 -54 -8 -5 -9 -1 -10 14 -5 28 9 69 -17 108 -70
l32 -43 -24 -16 c-14 -9 -25 -25 -25 -36 0 -11 -4 -20 -10 -20 -5 0 -10 -12
-10 -26 0 -14 -12 -40 -26 -57 -22 -27 -25 -37 -19 -72 3 -22 7 -48 8 -58 1
-9 8 -19 17 -22 9 -3 33 -22 53 -43 33 -34 36 -40 22 -52 -11 -9 -15 -9 -15
-1 0 8 -7 6 -17 -4 -16 -16 -15 -18 8 -36 13 -10 32 -19 42 -19 10 0 15 -4 12
-10 -3 -5 1 -10 9 -10 9 0 16 -4 16 -10 0 -5 -4 -10 -10 -10 -5 0 -10 -7 -10
-15 0 -20 -10 -19 -27 3 -8 9 -12 11 -8 4 9 -17 8 -607 0 -668 -4 -27 -11 -51
-14 -54 -4 -3 -20 -30 -35 -60 -62 -119 -148 -204 -326 -321 -99 -66 -141 -81
-155 -59 -16 26 -71 8 -160 -53 -22 -15 -56 -39 -76 -52 -20 -13 -49 -36 -65
-50 -30 -28 -180 -135 -189 -135 -7 0 -209 -112 -215 -120 -3 -3 -21 -17 -40
-30 -19 -13 -61 -46 -93 -72 -32 -26 -64 -48 -72 -48 -54 0 -117 -26 -183 -75
-41 -30 -92 -62 -113 -72 l-39 -17 0 -533 0 -533 1587 0 1586 0 121 75 c181
111 420 282 473 337 l28 29 0 187 c-1 128 -6 214 -17 272 -9 47 -19 116 -23
154 -12 131 -63 298 -117 379 -82 123 -200 205 -328 226 -115 20 -113 19 -106
47 6 22 39 64 51 64 2 0 25 20 50 44 36 33 50 58 65 105 10 34 24 68 30 76 6
8 31 51 54 97 24 46 57 105 75 132 17 28 31 54 31 58 0 5 9 21 19 36 11 15 22
47 26 72 6 42 6 44 -9 25 -8 -11 -16 -29 -16 -39 0 -14 -3 -17 -11 -9 -7 7 -7
22 1 52 10 39 29 56 31 29 0 -7 7 2 15 20 13 29 13 35 -1 48 -17 18 -19 30 -5
39 6 3 10 12 10 18 0 7 -5 4 -11 -5 -5 -10 -18 -18 -27 -18 -16 -1 -16 -1 1
-11 9 -6 15 -14 12 -19 -3 -5 -1 -11 5 -15 5 -3 10 -11 10 -16 0 -6 -4 -7 -10
-4 -5 3 -10 1 -10 -4 0 -6 -9 -11 -20 -11 -11 0 -20 7 -20 15 0 8 7 15 16 15
14 0 14 1 0 16 -9 8 -16 24 -16 34 0 10 -5 22 -10 25 -6 4 -7 13 -1 23 11 23
-14 82 -37 82 -16 1 -16 1 1 14 24 19 21 29 -7 22 -16 -4 -29 0 -40 13 -27 29
-84 34 -149 11 -70 -25 -113 -26 -126 -3 -8 16 -18 16 -121 5 -61 -7 -116 -9
-123 -5 -7 4 -21 6 -32 5 -14 -2 -16 0 -7 6 7 5 10 16 6 25 -7 20 22 111 42
127 19 17 18 27 -7 41 -18 9 -25 7 -44 -13 -37 -40 -54 -81 -56 -139 -2 -59
11 -90 48 -110 13 -7 21 -19 19 -26 -4 -9 5 -16 24 -20 33 -6 41 -23 12 -23
-22 0 -42 -18 -36 -34 3 -7 -10 -11 -33 -12 -20 0 -39 -6 -41 -12 -2 -6 -19
-14 -38 -18 -24 -4 -40 -16 -54 -39 -25 -40 -63 -67 -84 -59 -12 5 -14 1 -7
-23 8 -28 7 -29 -19 -25 -16 2 -37 11 -47 21 -10 9 -30 17 -45 19 -22 2 -28
-1 -28 -18 0 -11 -6 -20 -12 -20 -8 0 -5 -7 6 -15 11 -8 16 -18 11 -22 -4 -5
-10 -2 -12 5 -3 6 -12 12 -22 12 -9 0 -30 13 -46 30 -23 24 -26 32 -16 44 16
19 5 39 -16 32 -9 -4 -22 -1 -29 5 -8 6 -14 8 -14 3 0 -16 -70 70 -85 104 -8
17 -18 32 -24 32 -10 0 -41 83 -41 112 0 10 -4 18 -10 18 -5 0 -10 19 -10 43
0 24 -7 52 -15 63 -8 10 -15 27 -15 37 0 10 -8 17 -21 17 -20 0 -20 4 -17 129
2 106 6 132 21 148 9 11 17 29 17 41 0 12 15 36 33 52 l32 29 -47 1 c-41 0
-48 3 -48 20 0 18 7 20 55 20 30 0 55 5 55 10 0 6 -25 10 -55 10 -48 0 -55 2
-55 20 0 11 -4 20 -10 20 -5 0 -7 13 -3 30 3 18 1 30 -5 30 -6 0 -4 16 6 40
17 39 18 40 70 40 l52 0 0 -70 c0 -56 -3 -70 -15 -70 -8 0 -15 -4 -15 -9 0
-13 37 -20 74 -14 20 3 36 1 40 -6 4 -6 16 -11 26 -11 13 0 17 -5 14 -14 -3
-8 -12 -12 -19 -10 -7 3 -16 1 -20 -5 -8 -14 28 -14 42 0 7 7 14 1 22 -19 15
-36 49 -53 125 -60 l59 -5 -21 21 c-12 12 -26 22 -32 22 -5 0 -10 8 -10 17 0
13 3 14 12 5 7 -7 23 -12 37 -12 21 0 23 -2 11 -10 -12 -8 -9 -10 12 -10 39 0
58 -10 58 -30 0 -25 -29 -30 -140 -25 -52 2 -84 2 -70 -1 14 -2 45 -9 69 -15
58 -13 255 -13 259 1 2 5 15 10 29 10 31 0 113 85 113 118 0 31 1 34 22 56 23
25 22 27 -2 54 -12 12 -17 22 -13 22 4 0 1 5 -7 10 -13 9 -13 10 0 10 8 0 42
-7 75 -15 53 -12 62 -12 75 1 13 14 13 15 -5 12 -11 -2 -20 2 -20 7 0 18 -42
65 -58 65 -8 0 -26 9 -41 21 -16 13 -33 18 -46 14 -13 -4 -31 2 -51 16 -17 12
-45 22 -62 21 -17 0 -36 3 -42 8 -16 14 -64 20 -167 22 -91 2 -158 -12 -158
-34 0 -5 -4 -7 -10 -3 -5 3 -17 1 -27 -4 -15 -8 -84 -23 -103 -23 -2 0 -6 5
-8 11 -2 7 11 11 32 11 29 0 36 4 36 19 0 10 8 22 18 26 16 6 16 7 -2 21 -17
12 -18 14 -3 14 13 0 17 9 17 40 0 29 -4 40 -15 40 -8 0 -15 -7 -15 -16 0 -14
-2 -15 -17 -3 -15 13 -15 14 0 17 14 3 17 17 17 83 0 78 0 79 -25 79 -22 0
-25 4 -25 40 0 23 5 40 11 40 7 0 10 15 7 40 -2 28 0 40 9 40 10 0 13 22 13
79 0 44 3 82 8 84 4 3 5 -15 3 -39 l-3 -44 121 0 c78 0 121 4 121 11 0 11 60
69 72 69 5 0 8 18 8 40 0 33 -3 40 -20 40 -11 0 -20 4 -20 10 0 5 9 15 20 22
11 7 20 21 20 30 0 11 7 18 18 18 10 0 24 9 32 20 17 24 30 26 30 5 0 -20 68
-20 95 -1 11 7 23 14 28 14 16 2 39 19 35 28 -1 5 15 11 37 14 51 7 125 41
125 58 0 18 18 15 56 -9 24 -14 40 -18 56 -13 29 11 98 11 98 2 0 -5 12 -8 26
-8 14 0 23 4 19 10 -3 6 -1 10 5 10 6 0 13 -7 16 -15 4 -8 14 -15 24 -15 10 0
21 -6 23 -12 3 -7 6 -8 6 -3 1 16 -10 28 -89 91 -145 115 -229 158 -376 193
-118 27 -197 31 -310 15z m111 -1248 c58 -13 69 -35 29 -61 -23 -15 -48 -17
-153 -16 -69 1 -130 6 -135 11 -7 7 -6 10 1 10 7 0 13 10 15 22 2 15 16 29 38
40 37 18 105 16 205 -6z m169 -78 c-9 -14 -22 -9 -27 11 -4 17 -2 18 13 8 10
-6 16 -15 14 -19z m-276 -30 c-7 -20 -65 -23 -65 -4 0 11 10 16 35 16 22 0 32
-4 30 -12z m-98 -89 c0 -11 -4 -19 -9 -19 -16 0 -33 30 -27 46 5 13 9 14 21 4
8 -7 15 -21 15 -31z m70 31 c0 -5 -10 -10 -22 -10 -19 0 -20 2 -8 10 19 13 30
13 30 0z m180 -17 c23 -16 60 -50 60 -55 0 -2 -15 -4 -32 -5 -18 -1 -59 -5
-92 -9 -58 -7 -58 -7 -51 17 21 66 66 86 115 52z m-125 -13 c3 -6 -4 -10 -17
-11 -21 0 -21 -1 -4 -8 13 -5 16 -10 8 -15 -6 -4 -21 -2 -34 5 -21 11 -21 12
-3 25 22 16 41 18 50 4z m-125 -47 c0 -8 -5 -13 -12 -11 -18 6 -21 25 -3 25 8
0 15 -7 15 -14z m-724 -57 c-22 -47 -20 -64 5 -35 17 19 22 21 29 9 6 -8 10
-35 10 -60 -1 -35 -3 -41 -11 -27 -5 9 -17 17 -24 17 -8 0 -21 14 -28 32 -11
28 -11 37 6 71 10 21 21 36 24 33 3 -3 -2 -21 -11 -40z m1419 -761 c39 -9 86
-17 105 -18 32 -2 35 -5 38 -36 4 -35 -14 -91 -32 -103 -6 -4 -18 -5 -27 -3
-8 3 -35 1 -60 -3 -56 -10 -205 2 -225 19 -8 7 -13 18 -10 25 7 17 -14 30 -23
15 -9 -14 -94 -24 -144 -15 -31 5 -36 8 -26 20 9 11 8 14 -2 15 -8 0 1 7 19
15 17 8 32 18 32 22 0 4 26 13 58 20 31 7 69 18 84 26 53 28 99 28 213 1z
m237 -25 c12 0 18 -3 15 -7 -4 -4 6 -12 23 -19 19 -8 30 -20 30 -33 0 -30 -11
-51 -26 -51 -10 0 -12 8 -7 30 5 30 -10 43 -20 18 -4 -9 -6 -8 -6 3 -1 9 -12
22 -25 29 -29 15 -46 46 -20 36 8 -3 25 -6 36 -6z m114 -143 c-2 -13 -7 -31
-12 -40 -8 -13 -10 -8 -10 23 1 23 6 40 13 40 6 0 10 -10 9 -23z m-809 -33 c4
-12 8 -12 13 -4 6 10 15 10 39 -1 17 -8 31 -17 31 -21 0 -5 7 -8 15 -8 8 0 15
-6 15 -14 0 -19 51 -18 73 2 18 16 18 17 0 24 -12 6 -7 7 14 4 25 -4 31 -2 26
9 -6 18 24 19 112 5 76 -12 109 -13 219 -6 48 3 92 4 96 1 4 -2 4 -26 -1 -51
-5 -26 -7 -50 -4 -52 6 -6 50 40 58 62 6 14 10 14 27 4 26 -17 25 -24 -5 -44
-14 -9 -25 -20 -25 -25 0 -5 -15 -26 -32 -45 -18 -20 -48 -58 -68 -86 -53 -76
-63 -80 -105 -35 -19 20 -35 41 -35 46 0 5 -8 12 -17 15 -48 15 -123 6 -123
-15 0 -5 -8 -9 -18 -9 -10 0 -37 -18 -62 -40 -24 -21 -47 -37 -52 -34 -4 3
-24 0 -43 -7 -32 -12 -38 -11 -66 10 -19 14 -40 21 -55 18 -18 -3 -24 0 -24
15 0 11 -11 22 -25 28 -14 5 -25 17 -25 25 0 29 -39 95 -53 89 -18 -7 -41 22
-33 41 3 8 13 15 22 15 13 0 15 8 12 35 -4 32 -2 35 37 48 54 19 55 19 62 1z
m777 -32 c3 -5 -1 -9 -9 -9 -8 0 -12 4 -9 9 3 4 7 8 9 8 2 0 6 -4 9 -8z"/>
<path d="M2946 2254 c-10 -25 1 -29 14 -5 6 12 7 21 1 21 -5 0 -12 -7 -15 -16z"/>
<path d="M2915 2241 c-3 -5 -2 -12 3 -15 5 -3 9 1 9 9 0 17 -3 19 -12 6z"/>
<path d="M3456 2241 c-4 -7 -5 -15 -2 -18 9 -9 19 4 14 18 -4 11 -6 11 -12 0z"/>
<path d="M2960 2195 c0 -8 4 -15 10 -15 5 0 7 7 4 15 -4 8 -8 15 -10 15 -2 0
-4 -7 -4 -15z"/>
<path d="M3380 4505 c0 -4 23 -30 50 -57 28 -27 50 -56 50 -64 0 -8 -4 -12
-10 -9 -6 3 -7 -1 -4 -9 7 -19 20 -21 27 -3 8 18 27 -12 19 -31 -3 -9 -1 -13
5 -9 7 5 9 0 6 -13 -3 -11 1 -28 8 -37 10 -12 10 -14 2 -9 -9 5 -13 0 -13 -13
0 -12 5 -21 10 -21 6 0 10 5 10 12 0 6 9 3 20 -7 21 -19 27 -45 11 -45 -5 0
-11 6 -14 13 -2 7 -8 8 -13 3 -5 -5 -4 -10 2 -13 8 -2 10 -18 7 -43 -6 -39 -5
-40 26 -40 23 0 31 -5 31 -17 0 -21 -20 -55 -20 -35 0 7 -14 12 -35 12 -35 0
-35 0 -35 45 l0 45 -40 0 c-36 0 -40 3 -40 25 0 23 -4 25 -40 25 -22 0 -40 -4
-40 -10 0 -5 14 -10 30 -10 28 0 30 -2 30 -40 0 -38 -2 -40 -30 -40 l-30 0 0
-119 0 -120 33 -3 c22 -2 35 -10 42 -25 5 -13 13 -23 17 -23 5 0 8 -4 8 -10 0
-15 33 -50 42 -44 4 3 11 -8 14 -25 6 -29 22 -38 56 -32 5 0 7 -5 5 -11 -1 -9
10 -13 34 -13 19 0 43 -7 52 -15 46 -42 49 -44 58 -29 6 9 7 4 3 -16 -9 -40
-13 -47 -26 -39 -13 9 -179 -27 -172 -37 3 -5 -8 -11 -23 -15 -15 -3 -35 -8
-43 -10 -20 -6 -100 -80 -100 -92 0 -15 -34 -72 -42 -72 -4 0 -21 -27 -37 -61
-29 -56 -30 -63 -20 -112 6 -29 20 -61 30 -73 10 -11 19 -24 19 -28 0 -4 11
-19 25 -34 14 -15 25 -34 25 -43 0 -11 11 -18 30 -21 26 -4 30 -1 30 18 0 13
-4 34 -10 48 -8 21 -6 27 10 36 11 6 20 7 20 2 0 -29 182 -31 188 -2 2 8 10
18 17 23 8 4 21 14 29 22 8 8 30 15 49 15 32 0 35 -3 42 -37 4 -21 8 -95 9
-165 1 -85 4 -124 11 -117 17 17 12 207 -8 280 -29 112 -36 234 -15 304 20 67
23 116 8 131 -5 5 -11 21 -14 34 -2 14 -5 27 -6 30 -2 3 -2 9 -1 15 9 46 -50
385 -78 450 -5 11 -16 40 -26 65 -27 69 -37 90 -73 145 -60 93 -107 156 -132
178 -46 39 -60 50 -60 42z m180 -225 c0 -5 -2 -10 -4 -10 -3 0 -8 5 -11 10 -3
6 -1 10 4 10 6 0 11 -4 11 -10z m100 -860 c3 -1 13 -3 22 -4 10 0 18 -5 17
-11 0 -5 -8 -9 -17 -7 -9 2 -32 6 -49 9 -18 3 -33 9 -33 14 0 8 39 7 60 -1z
m-127 -57 c-7 -2 -21 -2 -30 0 -10 3 -4 5 12 5 17 0 24 -2 18 -5z m128 -33
c49 -27 -12 -98 -77 -91 -8 1 -5 14 7 38 10 21 19 43 19 50 0 16 24 17 51 3z
m-151 -10 c0 -5 -4 -10 -10 -10 -5 0 -10 5 -10 10 0 6 5 10 10 10 6 0 10 -4
10 -10z m-57 -40 c3 -13 0 -20 -8 -20 -18 0 -28 17 -21 36 7 19 22 11 29 -16z
m97 -5 c0 -28 -24 -34 -34 -9 -10 26 -7 34 14 34 15 0 20 -7 20 -25z"/>
<path d="M3178 4299 c-24 -13 -23 -25 2 -32 16 -4 20 0 20 19 0 27 1 27 -22
13z"/>
<path d="M2320 4070 c0 -29 4 -40 15 -40 11 0 15 11 15 40 0 29 -4 40 -15 40
-11 0 -15 -11 -15 -40z"/>
<path d="M1596 3533 c-3 -10 -5 -88 -5 -173 1 -114 5 -161 15 -177 8 -12 14
-30 14 -40 0 -15 2 -16 11 -3 8 11 12 12 16 2 2 -6 9 -10 14 -7 5 4 -1 16 -12
28 -32 34 -23 141 19 228 18 37 32 73 32 80 0 24 -54 79 -77 79 -12 0 -24 -8
-27 -17z m52 -95 c-13 -58 -20 -62 -17 -8 3 51 7 63 19 55 4 -3 4 -24 -2 -47z"/>
<path d="M2831 3221 c-8 -5 -9 -11 -3 -15 5 -3 12 1 16 9 6 17 6 18 -13 6z"/>
<path d="M3687 2669 c7 -7 15 -10 18 -7 3 3 -2 9 -12 12 -14 6 -15 5 -6 -5z"/>
<path d="M3647 2573 c-2 -10 -8 -27 -12 -38 -12 -30 9 -6 23 28 6 15 8 27 3
27 -5 0 -11 -8 -14 -17z"/>
<path d="M3795 390 c-3 -5 -1 -10 4 -10 6 0 11 5 11 10 0 6 -2 10 -4 10 -3 0
-8 -4 -11 -10z"/>
<path d="M3826 353 c-14 -44 -223 -212 -422 -340 -15 -9 38 -12 250 -12 l268
-1 -7 38 c-4 20 -20 87 -35 147 -16 61 -33 128 -38 150 -7 34 -9 37 -16 18z"/>
<path d="M3685 289 c-49 -38 -164 -119 -254 -180 -90 -60 -157 -109 -148 -109
28 0 365 234 464 322 68 60 36 43 -62 -33z"/>
</g>
</svg>
